# xmcd
# Copyright (C) 1995-1998 Ti Kan
#
# Track frame offsets:
#       150
#       13807
#       30709
#       44029
#       61101
#
# Disc length: 1022 seconds
#
# Revision: 0
# Processed by: cddbd v1.5.2PL0 Copyright (c) Steve Scherf et al.
# Submitted via: CD-Import v1.0
#
DISCID=3d03fc05
DTITLE=Hej Francis! - Hej Francis!
DYEAR=08
DGENRE=
TTITLE0=Sur Le Mont Everest
TTITLE1=Docteur Psy
TTITLE2=Les Jardins Anglais
TTITLE3=Tomorrow Will Be Fine
TTITLE4=Taxi Montréal
EXTD=
EXTT0=
EXTT1=
EXTT2=
EXTT3=
EXTT4=
PLAYORDER=
